REM MD5 01ab9bfba57d853cfefe92d8fea3d202
FILE "Interactive CD Sampler Disc Volume 8 (USA).bin" BINARY
  TRACK 01 MODE2/2352
    INDEX 01 00:00:00
  TRACK 02 AUDIO
    INDEX 00 65:34:11
    INDEX 01 65:36:11
  TRACK 03 AUDIO
    INDEX 00 68:02:05
    INDEX 01 68:04:05
  TRACK 04 AUDIO
    INDEX 00 68:24:60
    INDEX 01 68:26:60
REM LEADOUT 68:32:56
